<?xml version="1.0" encoding="UTF-8" standalone="no"?>
<!DOCTYPE svg PUBLIC "-//W3C//DTD SVG 1.1//EN"
 "http://www.w3.org/Graphics/SVG/1.1/DTD/svg11.dtd">
<!-- Generated by graphviz version 2.40.1 (20161225.0304)
 -->
<!-- Title: %0 Pages: 1 -->
<svg width="1033pt" height="1271pt"
 viewBox="0.00 0.00 1033.00 1271.00" xmlns="http://www.w3.org/2000/svg" xmlns:xlink="http://www.w3.org/1999/xlink">
<g id="graph0" class="graph" transform="scale(1 1) rotate(0) translate(4 1267)">
<title>%0</title>
<g id="a_graph0"><a xlink:title="Data Model">
<polygon fill="#ffffff" stroke="transparent" points="-4,4 -4,-1267 1029,-1267 1029,4 -4,4"/>
</a>
</g>
<!-- AcquisitionSpecialist -->
<g id="AcquisitionSpecialist" class="node">
<title>AcquisitionSpecialist</title>
<polygon fill="#efebdd" stroke="transparent" points="639,-730.5 639,-753.5 779,-753.5 779,-730.5 639,-730.5"/>
<text text-anchor="start" x="640.5648" y="-737.1" font-family="Times,serif" font-size="16.00" fill="#000000">AcquisitionSpecialist</text>
<polygon fill="#ffffff" stroke="transparent" points="639,-712.5 639,-730.5 779,-730.5 779,-712.5 639,-712.5"/>
<text text-anchor="start" x="641" y="-718.7" font-family="Times,serif" text-decoration="underline" font-size="12.00" fill="#444444">username</text>
<polygon fill="none" stroke="#555555" points="638,-712 638,-755 780,-755 780,-712 638,-712"/>
</g>
<!-- StaffUser -->
<g id="StaffUser" class="node">
<title>StaffUser</title>
<polygon fill="#efebdd" stroke="transparent" points="926.5,-730.5 926.5,-753.5 1023.5,-753.5 1023.5,-730.5 926.5,-730.5"/>
<text text-anchor="start" x="944.3512" y="-737.1" font-family="Times,serif" font-size="16.00" fill="#000000">StaffUser</text>
<polygon fill="#ffffff" stroke="transparent" points="926.5,-712.5 926.5,-730.5 1023.5,-730.5 1023.5,-712.5 926.5,-712.5"/>
<text text-anchor="start" x="928.5" y="-718.7" font-family="Times,serif" text-decoration="underline" font-size="12.00" fill="#444444">username</text>
<polygon fill="#ffffff" stroke="transparent" points="926.5,-694.5 926.5,-712.5 1023.5,-712.5 1023.5,-694.5 926.5,-694.5"/>
<text text-anchor="start" x="928.3446" y="-699.7" font-family="Times,serif" font-size="12.00" fill="#444444">password_plaintext</text>
<polygon fill="#ffffff" stroke="transparent" points="926.5,-676.5 926.5,-694.5 1023.5,-694.5 1023.5,-676.5 926.5,-676.5"/>
<text text-anchor="start" x="928.5" y="-681.7" font-family="Times,serif" font-size="12.00" fill="#444444">first_name</text>
<polygon fill="#ffffff" stroke="transparent" points="926.5,-658.5 926.5,-676.5 1023.5,-676.5 1023.5,-658.5 926.5,-658.5"/>
<text text-anchor="start" x="928.5" y="-663.7" font-family="Times,serif" font-size="12.00" fill="#444444">last_name</text>
<polygon fill="none" stroke="#555555" points="925,-658 925,-755 1024,-755 1024,-658 925,-658"/>
</g>
<!-- AcquisitionSpecialist&#45;&gt;StaffUser -->
<g id="AcquisitionSpecialist_1" class="edge">
<title>AcquisitionSpecialist:username&#45;&gt;StaffUser:username</title>
<path fill="none" stroke="#555555" d="M779,-721.5C840.9705,-721.5 859.0049,-721.5 916.1698,-721.5"/>
<polygon fill="#555555" stroke="#555555" points="916.5,-725.0001 926.5,-721.5 916.5,-718.0001 916.5,-725.0001"/>
</g>
<!-- BusinessCustomer -->
<g id="BusinessCustomer" class="node">
<title>BusinessCustomer</title>
<polygon fill="#efebdd" stroke="transparent" points="354.5,-1238.5 354.5,-1261.5 493.5,-1261.5 493.5,-1238.5 354.5,-1238.5"/>
<text text-anchor="start" x="364.4496" y="-1245.1" font-family="Times,serif" font-size="16.00" fill="#000000">BusinessCustomer</text>
<polygon fill="#ffffff" stroke="transparent" points="354.5,-1220.5 354.5,-1238.5 493.5,-1238.5 493.5,-1220.5 354.5,-1220.5"/>
<text text-anchor="start" x="356.5" y="-1226.7" font-family="Times,serif" text-decoration="underline" font-size="12.00" fill="#444444">customer_id</text>
<polygon fill="#ffffff" stroke="transparent" points="354.5,-1202.5 354.5,-1220.5 493.5,-1220.5 493.5,-1202.5 354.5,-1202.5"/>
<text text-anchor="start" x="356.5" y="-1207.7" font-family="Times,serif" font-size="12.00" fill="#444444">tax_id</text>
<polygon fill="#ffffff" stroke="transparent" points="354.5,-1184.5 354.5,-1202.5 493.5,-1202.5 493.5,-1184.5 354.5,-1184.5"/>
<text text-anchor="start" x="356.5" y="-1189.7" font-family="Times,serif" font-size="12.00" fill="#444444">business_name</text>
<polygon fill="#ffffff" stroke="transparent" points="354.5,-1166.5 354.5,-1184.5 493.5,-1184.5 493.5,-1166.5 354.5,-1166.5"/>
<text text-anchor="start" x="356.5" y="-1171.7" font-family="Times,serif" font-size="12.00" fill="#444444">primary_contact_title</text>
<polygon fill="#ffffff" stroke="transparent" points="354.5,-1148.5 354.5,-1166.5 493.5,-1166.5 493.5,-1148.5 354.5,-1148.5"/>
<text text-anchor="start" x="356.0248" y="-1153.7" font-family="Times,serif" font-size="12.00" fill="#444444">primary_contact_first_name</text>
<polygon fill="#ffffff" stroke="transparent" points="354.5,-1130.5 354.5,-1148.5 493.5,-1148.5 493.5,-1130.5 354.5,-1130.5"/>
<text text-anchor="start" x="356.5" y="-1135.7" font-family="Times,serif" font-size="12.00" fill="#444444">primary_contact_last_name</text>
<polygon fill="none" stroke="#555555" points="353,-1130 353,-1263 494,-1263 494,-1130 353,-1130"/>
</g>
<!-- Customer -->
<g id="Customer" class="node">
<title>Customer</title>
<polygon fill="#efebdd" stroke="transparent" points="672,-1068.5 672,-1091.5 747,-1091.5 747,-1068.5 672,-1068.5"/>
<text text-anchor="start" x="678.3928" y="-1075.1" font-family="Times,serif" font-size="16.00" fill="#000000">Customer</text>
<polygon fill="#ffffff" stroke="transparent" points="672,-1050.5 672,-1068.5 747,-1068.5 747,-1050.5 672,-1050.5"/>
<text text-anchor="start" x="674" y="-1056.7" font-family="Times,serif" text-decoration="underline" font-size="12.00" fill="#444444">customer_id</text>
<polygon fill="#ffffff" stroke="transparent" points="672,-1032.5 672,-1050.5 747,-1050.5 747,-1032.5 672,-1032.5"/>
<text text-anchor="start" x="673.5084" y="-1037.7" font-family="Times,serif" font-size="12.00" fill="#444444">phone_number</text>
<polygon fill="#ffffff" stroke="transparent" points="672,-1014.5 672,-1032.5 747,-1032.5 747,-1014.5 672,-1014.5"/>
<text text-anchor="start" x="674" y="-1019.7" font-family="Times,serif" font-size="12.00" fill="#444444">email</text>
<polygon fill="#ffffff" stroke="transparent" points="672,-996.5 672,-1014.5 747,-1014.5 747,-996.5 672,-996.5"/>
<text text-anchor="start" x="674" y="-1001.7" font-family="Times,serif" font-size="12.00" fill="#444444">state</text>
<polygon fill="#ffffff" stroke="transparent" points="672,-978.5 672,-996.5 747,-996.5 747,-978.5 672,-978.5"/>
<text text-anchor="start" x="674" y="-983.7" font-family="Times,serif" font-size="12.00" fill="#444444">city</text>
<polygon fill="#ffffff" stroke="transparent" points="672,-960.5 672,-978.5 747,-978.5 747,-960.5 672,-960.5"/>
<text text-anchor="start" x="674" y="-965.7" font-family="Times,serif" font-size="12.00" fill="#444444">street</text>
<polygon fill="#ffffff" stroke="transparent" points="672,-942.5 672,-960.5 747,-960.5 747,-942.5 672,-942.5"/>
<text text-anchor="start" x="674" y="-947.7" font-family="Times,serif" font-size="12.00" fill="#444444">postal_code</text>
<polygon fill="none" stroke="#555555" points="670.5,-942 670.5,-1093 747.5,-1093 747.5,-942 670.5,-942"/>
</g>
<!-- BusinessCustomer&#45;&gt;Customer -->
<g id="BusinessCustomer_1" class="edge">
<title>BusinessCustomer:customer_id&#45;&gt;Customer:customer_id</title>
<path fill="none" stroke="#555555" d="M493.5,-1229.5C599.525,-1229.5 564.906,-1070.2805 661.866,-1060.0183"/>
<polygon fill="#555555" stroke="#555555" points="662.1919,-1063.5063 672,-1059.5 661.8343,-1056.5154 662.1919,-1063.5063"/>
</g>
<!-- Color -->
<g id="Color" class="node">
<title>Color</title>
<polygon fill="#efebdd" stroke="transparent" points="679,-18.5 679,-41.5 739,-41.5 739,-18.5 679,-18.5"/>
<text text-anchor="start" x="690.7784" y="-25.1" font-family="Times,serif" font-size="16.00" fill="#000000">Color</text>
<polygon fill="#ffffff" stroke="transparent" points="679,-.5 679,-18.5 739,-18.5 739,-.5 679,-.5"/>
<text text-anchor="start" x="680.6776" y="-6.7" font-family="Times,serif" text-decoration="underline" font-size="12.00" fill="#444444">color_name</text>
<polygon fill="none" stroke="#555555" points="678,0 678,-43 740,-43 740,0 678,0"/>
</g>
<!-- IndividualCustomer -->
<g id="IndividualCustomer" class="node">
<title>IndividualCustomer</title>
<polygon fill="#efebdd" stroke="transparent" points="358.5,-1033.5 358.5,-1056.5 489.5,-1056.5 489.5,-1033.5 358.5,-1033.5"/>
<text text-anchor="start" x="360.0088" y="-1040.1" font-family="Times,serif" font-size="16.00" fill="#000000">IndividualCustomer</text>
<polygon fill="#ffffff" stroke="transparent" points="358.5,-1015.5 358.5,-1033.5 489.5,-1033.5 489.5,-1015.5 358.5,-1015.5"/>
<text text-anchor="start" x="360.5" y="-1021.7" font-family="Times,serif" text-decoration="underline" font-size="12.00" fill="#444444">customer_id</text>
<polygon fill="#ffffff" stroke="transparent" points="358.5,-997.5 358.5,-1015.5 489.5,-1015.5 489.5,-997.5 358.5,-997.5"/>
<text text-anchor="start" x="360.5" y="-1002.7" font-family="Times,serif" font-size="12.00" fill="#444444">ssn</text>
<polygon fill="#ffffff" stroke="transparent" points="358.5,-979.5 358.5,-997.5 489.5,-997.5 489.5,-979.5 358.5,-979.5"/>
<text text-anchor="start" x="360.5" y="-984.7" font-family="Times,serif" font-size="12.00" fill="#444444">first_name</text>
<polygon fill="#ffffff" stroke="transparent" points="358.5,-961.5 358.5,-979.5 489.5,-979.5 489.5,-961.5 358.5,-961.5"/>
<text text-anchor="start" x="360.5" y="-966.7" font-family="Times,serif" font-size="12.00" fill="#444444">last_name</text>
<polygon fill="none" stroke="#555555" points="357,-961 357,-1058 490,-1058 490,-961 357,-961"/>
</g>
<!-- IndividualCustomer&#45;&gt;Customer -->
<g id="IndividualCustomer_1" class="edge">
<title>IndividualCustomer:customer_id&#45;&gt;Customer:customer_id</title>
<path fill="none" stroke="#555555" d="M489.5,-1024.5C568.5405,-1024.5 587.8017,-1056.5568 661.7049,-1059.3117"/>
<polygon fill="#555555" stroke="#555555" points="661.9376,-1062.8164 672,-1059.5 662.0657,-1055.8176 661.9376,-1062.8164"/>
</g>
<!-- Manufacturer -->
<g id="Manufacturer" class="node">
<title>Manufacturer</title>
<polygon fill="#efebdd" stroke="transparent" points="925.5,-405.5 925.5,-428.5 1024.5,-428.5 1024.5,-405.5 925.5,-405.5"/>
<text text-anchor="start" x="931.4712" y="-412.1" font-family="Times,serif" font-size="16.00" fill="#000000">Manufacturer</text>
<polygon fill="#ffffff" stroke="transparent" points="925.5,-387.5 925.5,-405.5 1024.5,-405.5 1024.5,-387.5 925.5,-387.5"/>
<text text-anchor="start" x="927.0252" y="-393.7" font-family="Times,serif" text-decoration="underline" font-size="12.00" fill="#444444">manufacturer_name</text>
<polygon fill="none" stroke="#555555" points="924,-387 924,-430 1025,-430 1025,-387 924,-387"/>
</g>
<!-- OperatingManager -->
<g id="OperatingManager" class="node">
<title>OperatingManager</title>
<polygon fill="#efebdd" stroke="transparent" points="647,-845.5 647,-868.5 771,-868.5 771,-845.5 647,-845.5"/>
<text text-anchor="start" x="648.5848" y="-852.1" font-family="Times,serif" font-size="16.00" fill="#000000">OperatingManager</text>
<polygon fill="#ffffff" stroke="transparent" points="647,-827.5 647,-845.5 771,-845.5 771,-827.5 647,-827.5"/>
<text text-anchor="start" x="649" y="-833.7" font-family="Times,serif" text-decoration="underline" font-size="12.00" fill="#444444">username</text>
<polygon fill="none" stroke="#555555" points="646,-827 646,-870 772,-870 772,-827 646,-827"/>
</g>
<!-- OperatingManager&#45;&gt;StaffUser -->
<g id="OperatingManager_1" class="edge">
<title>OperatingManager:username&#45;&gt;StaffUser:username</title>
<path fill="none" stroke="#555555" d="M771,-836.5C853.4319,-836.5 841.7168,-730.7401 916.4257,-722.0645"/>
<polygon fill="#555555" stroke="#555555" points="916.7115,-725.5541 926.5,-721.5 916.3198,-718.5651 916.7115,-725.5541"/>
</g>
<!-- PartsOrder -->
<g id="PartsOrder" class="node">
<title>PartsOrder</title>
<polygon fill="#efebdd" stroke="transparent" points="373.5,-413.5 373.5,-436.5 474.5,-436.5 474.5,-413.5 373.5,-413.5"/>
<text text-anchor="start" x="389.3512" y="-420.1" font-family="Times,serif" font-size="16.00" fill="#000000">PartsOrder</text>
<polygon fill="#ffffff" stroke="transparent" points="373.5,-395.5 373.5,-413.5 474.5,-413.5 474.5,-395.5 373.5,-395.5"/>
<text text-anchor="start" x="375.352" y="-401.7" font-family="Times,serif" text-decoration="underline" font-size="12.00" fill="#444444">parts_order_number</text>
<polygon fill="#ffffff" stroke="transparent" points="373.5,-377.5 373.5,-395.5 474.5,-395.5 474.5,-377.5 373.5,-377.5"/>
<text text-anchor="start" x="375.5" y="-382.7" font-family="Times,serif" font-size="12.00" fill="#444444">order_ordinal</text>
<polygon fill="#ffffff" stroke="transparent" points="373.5,-359.5 373.5,-377.5 474.5,-377.5 474.5,-359.5 373.5,-359.5"/>
<text text-anchor="start" x="375.5" y="-364.7" font-family="Times,serif" font-size="12.00" fill="#444444">vin</text>
<polygon fill="#ffffff" stroke="transparent" points="373.5,-341.5 373.5,-359.5 474.5,-359.5 474.5,-341.5 373.5,-341.5"/>
<text text-anchor="start" x="375.5" y="-346.7" font-family="Times,serif" font-size="12.00" fill="#444444">vendor_name</text>
<polygon fill="none" stroke="#555555" points="372,-341 372,-438 475,-438 475,-341 372,-341"/>
</g>
<!-- Vehicle -->
<g id="Vehicle" class="node">
<title>Vehicle</title>
<polygon fill="#efebdd" stroke="transparent" points="661,-500.5 661,-523.5 758,-523.5 758,-500.5 661,-500.5"/>
<text text-anchor="start" x="684.6248" y="-507.1" font-family="Times,serif" font-size="16.00" fill="#000000">Vehicle</text>
<polygon fill="#ffffff" stroke="transparent" points="661,-482.5 661,-500.5 758,-500.5 758,-482.5 661,-482.5"/>
<text text-anchor="start" x="663" y="-488.7" font-family="Times,serif" text-decoration="underline" font-size="12.00" fill="#444444">vin</text>
<polygon fill="#ffffff" stroke="transparent" points="661,-464.5 661,-482.5 758,-482.5 758,-464.5 661,-464.5"/>
<text text-anchor="start" x="663" y="-469.7" font-family="Times,serif" font-size="12.00" fill="#444444">model</text>
<polygon fill="#ffffff" stroke="transparent" points="661,-446.5 661,-464.5 758,-464.5 758,-446.5 661,-446.5"/>
<text text-anchor="start" x="663" y="-451.7" font-family="Times,serif" font-size="12.00" fill="#444444">year</text>
<polygon fill="#ffffff" stroke="transparent" points="661,-428.5 661,-446.5 758,-446.5 758,-428.5 661,-428.5"/>
<text text-anchor="start" x="663" y="-433.7" font-family="Times,serif" font-size="12.00" fill="#444444">condition</text>
<polygon fill="#ffffff" stroke="transparent" points="661,-410.5 661,-428.5 758,-428.5 758,-410.5 661,-410.5"/>
<text text-anchor="start" x="663" y="-415.7" font-family="Times,serif" font-size="12.00" fill="#444444">fuel_type</text>
<polygon fill="#ffffff" stroke="transparent" points="661,-392.5 661,-410.5 758,-410.5 758,-392.5 661,-392.5"/>
<text text-anchor="start" x="663" y="-397.7" font-family="Times,serif" font-size="12.00" fill="#444444">drive_train</text>
<polygon fill="#ffffff" stroke="transparent" points="661,-374.5 661,-392.5 758,-392.5 758,-374.5 661,-374.5"/>
<text text-anchor="start" x="663" y="-379.7" font-family="Times,serif" font-size="12.00" fill="#444444">horse_power</text>
<polygon fill="#ffffff" stroke="transparent" points="661,-356.5 661,-374.5 758,-374.5 758,-356.5 661,-356.5"/>
<text text-anchor="start" x="663" y="-361.7" font-family="Times,serif" font-size="12.00" fill="#444444">notes</text>
<polygon fill="#ffffff" stroke="transparent" points="661,-338.5 661,-356.5 758,-356.5 758,-338.5 661,-338.5"/>
<text text-anchor="start" x="663" y="-343.7" font-family="Times,serif" font-size="12.00" fill="#444444">manufacturer</text>
<polygon fill="#ffffff" stroke="transparent" points="661,-320.5 661,-338.5 758,-338.5 758,-320.5 661,-320.5"/>
<text text-anchor="start" x="662.85" y="-325.7" font-family="Times,serif" font-size="12.00" fill="#444444">vehicle_type_name</text>
<polygon fill="none" stroke="#555555" points="659.5,-320 659.5,-525 758.5,-525 758.5,-320 659.5,-320"/>
</g>
<!-- PartsOrder&#45;&gt;Vehicle -->
<g id="PartsOrder_1" class="edge">
<title>PartsOrder:vin&#45;&gt;Vehicle:vin</title>
<path fill="none" stroke="#555555" d="M474.5,-368.5C570.3018,-368.5 562.4195,-483.0036 650.931,-491.0546"/>
<polygon fill="#555555" stroke="#555555" points="650.8551,-494.5546 661,-491.5 651.1645,-487.5614 650.8551,-494.5546"/>
</g>
<!-- Vendor -->
<g id="Vendor" class="node">
<title>Vendor</title>
<polygon fill="#efebdd" stroke="transparent" points="672,-223.5 672,-246.5 747,-246.5 747,-223.5 672,-223.5"/>
<text text-anchor="start" x="685.5104" y="-230.1" font-family="Times,serif" font-size="16.00" fill="#000000">Vendor</text>
<polygon fill="#ffffff" stroke="transparent" points="672,-205.5 672,-223.5 747,-223.5 747,-205.5 672,-205.5"/>
<text text-anchor="start" x="674" y="-211.7" font-family="Times,serif" text-decoration="underline" font-size="12.00" fill="#444444">vendor_name</text>
<polygon fill="#ffffff" stroke="transparent" points="672,-187.5 672,-205.5 747,-205.5 747,-187.5 672,-187.5"/>
<text text-anchor="start" x="673.5084" y="-192.7" font-family="Times,serif" font-size="12.00" fill="#444444">phone_number</text>
<polygon fill="#ffffff" stroke="transparent" points="672,-169.5 672,-187.5 747,-187.5 747,-169.5 672,-169.5"/>
<text text-anchor="start" x="674" y="-174.7" font-family="Times,serif" font-size="12.00" fill="#444444">state</text>
<polygon fill="#ffffff" stroke="transparent" points="672,-151.5 672,-169.5 747,-169.5 747,-151.5 672,-151.5"/>
<text text-anchor="start" x="674" y="-156.7" font-family="Times,serif" font-size="12.00" fill="#444444">city</text>
<polygon fill="#ffffff" stroke="transparent" points="672,-133.5 672,-151.5 747,-151.5 747,-133.5 672,-133.5"/>
<text text-anchor="start" x="674" y="-138.7" font-family="Times,serif" font-size="12.00" fill="#444444">street</text>
<polygon fill="#ffffff" stroke="transparent" points="672,-115.5 672,-133.5 747,-133.5 747,-115.5 672,-115.5"/>
<text text-anchor="start" x="674" y="-120.7" font-family="Times,serif" font-size="12.00" fill="#444444">postal_code</text>
<polygon fill="none" stroke="#555555" points="670.5,-115 670.5,-248 747.5,-248 747.5,-115 670.5,-115"/>
</g>
<!-- PartsOrder&#45;&gt;Vendor -->
<g id="PartsOrder_2" class="edge">
<title>PartsOrder:vendor_name&#45;&gt;Vendor:vendor_name</title>
<path fill="none" stroke="#555555" d="M474.5,-350.5C577.5375,-350.5 566.3285,-223.3813 661.7793,-214.9398"/>
<polygon fill="#555555" stroke="#555555" points="662.1598,-218.4268 672,-214.5 661.8587,-211.4333 662.1598,-218.4268"/>
</g>
<!-- PartsOrderLine -->
<g id="PartsOrderLine" class="node">
<title>PartsOrderLine</title>
<polygon fill="#efebdd" stroke="transparent" points="1.5,-503.5 1.5,-526.5 208.5,-526.5 208.5,-503.5 1.5,-503.5"/>
<text text-anchor="start" x="55.6896" y="-510.1" font-family="Times,serif" font-size="16.00" fill="#000000">PartsOrderLine</text>
<polygon fill="#ffffff" stroke="transparent" points="1.5,-485.5 1.5,-503.5 208.5,-503.5 208.5,-485.5 1.5,-485.5"/>
<text text-anchor="start" x="3.5" y="-490.7" font-family="Times,serif" font-size="12.00" fill="#444444">vendor_part_number</text>
<polygon fill="#ffffff" stroke="transparent" points="1.5,-467.5 1.5,-485.5 208.5,-485.5 208.5,-467.5 1.5,-467.5"/>
<text text-anchor="start" x="3.5" y="-472.7" font-family="Times,serif" font-size="12.00" fill="#444444">description</text>
<polygon fill="#ffffff" stroke="transparent" points="1.5,-449.5 1.5,-467.5 208.5,-467.5 208.5,-449.5 1.5,-449.5"/>
<text text-anchor="start" x="3.5" y="-454.7" font-family="Times,serif" font-size="12.00" fill="#444444">status</text>
<polygon fill="#ffffff" stroke="transparent" points="1.5,-431.5 1.5,-449.5 208.5,-449.5 208.5,-431.5 1.5,-431.5"/>
<text text-anchor="start" x="3.5" y="-436.7" font-family="Times,serif" font-size="12.00" fill="#444444">quantity</text>
<polygon fill="#ffffff" stroke="transparent" points="1.5,-413.5 1.5,-431.5 208.5,-431.5 208.5,-413.5 1.5,-413.5"/>
<text text-anchor="start" x="3.5" y="-418.7" font-family="Times,serif" font-size="12.00" fill="#444444">unit_price</text>
<polygon fill="#ffffff" stroke="transparent" points="1.5,-395.5 1.5,-413.5 208.5,-413.5 208.5,-395.5 1.5,-395.5"/>
<text text-anchor="start" x="3.5" y="-400.7" font-family="Times,serif" font-size="12.00" fill="#444444">parts_order_number</text>
<polygon fill="#ffffff" stroke="transparent" points="1.5,-377.5 1.5,-395.5 208.5,-395.5 208.5,-377.5 1.5,-377.5"/>
<text text-anchor="start" x="3.0348" y="-383.7" font-family="Times,serif" text-decoration="underline" font-size="12.00" fill="#444444">vendor_part_number, parts_order_number</text>
<polygon fill="none" stroke="#555555" points="0,-377 0,-528 209,-528 209,-377 0,-377"/>
</g>
<!-- PartsOrderLine&#45;&gt;PartsOrder -->
<g id="PartsOrderLine_1" class="edge">
<title>PartsOrderLine:parts_order_number&#45;&gt;PartsOrder:parts_order_number</title>
<path fill="none" stroke="#555555" d="M208.5,-404.5C278.2526,-404.5 298.2452,-404.5 363.1384,-404.5"/>
<polygon fill="#555555" stroke="#555555" points="363.5,-408.0001 373.5,-404.5 363.5,-401.0001 363.5,-408.0001"/>
</g>
<!-- Purchase -->
<g id="Purchase" class="node">
<title>Purchase</title>
<polygon fill="#efebdd" stroke="transparent" points="378.5,-829.5 378.5,-852.5 469.5,-852.5 469.5,-829.5 378.5,-829.5"/>
<text text-anchor="start" x="395.1248" y="-836.1" font-family="Times,serif" font-size="16.00" fill="#000000">Purchase</text>
<polygon fill="#ffffff" stroke="transparent" points="378.5,-811.5 378.5,-829.5 469.5,-829.5 469.5,-811.5 378.5,-811.5"/>
<text text-anchor="start" x="380.5" y="-817.7" font-family="Times,serif" text-decoration="underline" font-size="12.00" fill="#444444">vin</text>
<polygon fill="#ffffff" stroke="transparent" points="378.5,-793.5 378.5,-811.5 469.5,-811.5 469.5,-793.5 378.5,-793.5"/>
<text text-anchor="start" x="380.5" y="-798.7" font-family="Times,serif" font-size="12.00" fill="#444444">purchase_price</text>
<polygon fill="#ffffff" stroke="transparent" points="378.5,-775.5 378.5,-793.5 469.5,-793.5 469.5,-775.5 378.5,-775.5"/>
<text text-anchor="start" x="380.5" y="-780.7" font-family="Times,serif" font-size="12.00" fill="#444444">purchase_date</text>
<polygon fill="#ffffff" stroke="transparent" points="378.5,-757.5 378.5,-775.5 469.5,-775.5 469.5,-757.5 378.5,-757.5"/>
<text text-anchor="start" x="380.5" y="-762.7" font-family="Times,serif" font-size="12.00" fill="#444444">seller_identifier</text>
<polygon fill="#ffffff" stroke="transparent" points="378.5,-739.5 378.5,-757.5 469.5,-757.5 469.5,-739.5 378.5,-739.5"/>
<text text-anchor="start" x="380.02" y="-744.7" font-family="Times,serif" font-size="12.00" fill="#444444">handler_username</text>
<polygon fill="none" stroke="#555555" points="377,-739 377,-854 470,-854 470,-739 377,-739"/>
</g>
<!-- Purchase&#45;&gt;AcquisitionSpecialist -->
<g id="Purchase_1" class="edge">
<title>Purchase:handler_username&#45;&gt;AcquisitionSpecialist:username</title>
<path fill="none" stroke="#555555" d="M469.5,-748.5C542.2073,-748.5 560.999,-723.9719 628.6517,-721.6724"/>
<polygon fill="#555555" stroke="#555555" points="629.0597,-725.1662 639,-721.5 628.943,-718.1672 629.0597,-725.1662"/>
</g>
<!-- Purchase&#45;&gt;Customer -->
<g id="Purchase_2" class="edge">
<title>Purchase:seller_identifier&#45;&gt;Customer:customer_id</title>
<path fill="none" stroke="#555555" d="M469.5,-766.5C624.2412,-766.5 518.6912,-1046.4857 661.7396,-1059.0632"/>
<polygon fill="#555555" stroke="#555555" points="661.8601,-1062.5714 672,-1059.5 662.158,-1055.5777 661.8601,-1062.5714"/>
</g>
<!-- Purchase&#45;&gt;Vehicle -->
<g id="Purchase_3" class="edge">
<title>Purchase:vin&#45;&gt;Vehicle:vin</title>
<path fill="none" stroke="#555555" d="M469.5,-820.5C635.2191,-820.5 497.7026,-504.8558 650.9843,-491.9094"/>
<polygon fill="#555555" stroke="#555555" points="651.1513,-495.4056 661,-491.5 650.8654,-488.4115 651.1513,-495.4056"/>
</g>
<!-- Sale -->
<g id="Sale" class="node">
<title>Sale</title>
<polygon fill="#efebdd" stroke="transparent" points="368.5,-642.5 368.5,-665.5 479.5,-665.5 479.5,-642.5 368.5,-642.5"/>
<text text-anchor="start" x="410.2272" y="-649.1" font-family="Times,serif" font-size="16.00" fill="#000000">Sale</text>
<polygon fill="#ffffff" stroke="transparent" points="368.5,-624.5 368.5,-642.5 479.5,-642.5 479.5,-624.5 368.5,-624.5"/>
<text text-anchor="start" x="370.5" y="-630.7" font-family="Times,serif" text-decoration="underline" font-size="12.00" fill="#444444">vin</text>
<polygon fill="#ffffff" stroke="transparent" points="368.5,-606.5 368.5,-624.5 479.5,-624.5 479.5,-606.5 368.5,-606.5"/>
<text text-anchor="start" x="370.5" y="-611.7" font-family="Times,serif" font-size="12.00" fill="#444444">sale_date</text>
<polygon fill="#ffffff" stroke="transparent" points="368.5,-588.5 368.5,-606.5 479.5,-606.5 479.5,-588.5 368.5,-588.5"/>
<text text-anchor="start" x="370.5" y="-593.7" font-family="Times,serif" font-size="12.00" fill="#444444">buyer_id</text>
<polygon fill="#ffffff" stroke="transparent" points="368.5,-570.5 368.5,-588.5 479.5,-588.5 479.5,-570.5 368.5,-570.5"/>
<text text-anchor="start" x="370.3564" y="-575.7" font-family="Times,serif" font-size="12.00" fill="#444444">sales_agent_username</text>
<polygon fill="none" stroke="#555555" points="367,-570 367,-667 480,-667 480,-570 367,-570"/>
</g>
<!-- Sale&#45;&gt;Customer -->
<g id="Sale_1" class="edge">
<title>Sale:buyer_id&#45;&gt;Customer:customer_id</title>
<path fill="none" stroke="#555555" d="M479.5,-597.5C698.4688,-597.5 457.3268,-1045.1753 661.9171,-1059.1651"/>
<polygon fill="#555555" stroke="#555555" points="661.8893,-1062.6661 672,-1059.5 662.1217,-1055.6699 661.8893,-1062.6661"/>
</g>
<!-- SalesAgent -->
<g id="SalesAgent" class="node">
<title>SalesAgent</title>
<polygon fill="#efebdd" stroke="transparent" points="671,-615.5 671,-638.5 747,-638.5 747,-615.5 671,-615.5"/>
<text text-anchor="start" x="672.5664" y="-622.1" font-family="Times,serif" font-size="16.00" fill="#000000">SalesAgent</text>
<polygon fill="#ffffff" stroke="transparent" points="671,-597.5 671,-615.5 747,-615.5 747,-597.5 671,-597.5"/>
<text text-anchor="start" x="673" y="-603.7" font-family="Times,serif" text-decoration="underline" font-size="12.00" fill="#444444">username</text>
<polygon fill="none" stroke="#555555" points="670,-597 670,-640 748,-640 748,-597 670,-597"/>
</g>
<!-- Sale&#45;&gt;SalesAgent -->
<g id="Sale_2" class="edge">
<title>Sale:sales_agent_username&#45;&gt;SalesAgent:username</title>
<path fill="none" stroke="#555555" d="M479.5,-579.5C561.9275,-579.5 583.3281,-604.3306 660.7495,-606.3675"/>
<polygon fill="#555555" stroke="#555555" points="660.9556,-609.8703 671,-606.5 661.0461,-602.8709 660.9556,-609.8703"/>
</g>
<!-- Sale&#45;&gt;Vehicle -->
<g id="Sale_3" class="edge">
<title>Sale:vin&#45;&gt;Vehicle:vin</title>
<path fill="none" stroke="#555555" d="M479.5,-633.5C578.4206,-633.5 560.0275,-501.0411 650.9285,-491.9863"/>
<polygon fill="#555555" stroke="#555555" points="651.1805,-495.4783 661,-491.5 650.8428,-488.4865 651.1805,-495.4783"/>
</g>
<!-- SalesAgent&#45;&gt;StaffUser -->
<g id="SalesAgent_1" class="edge">
<title>SalesAgent:username&#45;&gt;StaffUser:username</title>
<path fill="none" stroke="#555555" d="M747,-606.5C838.2302,-606.5 832.3512,-713.1232 916.3741,-721.0367"/>
<polygon fill="#555555" stroke="#555555" points="916.3504,-724.5391 926.5,-721.5 916.6705,-717.5465 916.3504,-724.5391"/>
</g>
<!-- Vehicle&#45;&gt;Manufacturer -->
<g id="Vehicle_1" class="edge">
<title>Vehicle:manufacturer&#45;&gt;Manufacturer:manufacturer_name</title>
<path fill="none" stroke="#555555" d="M758,-347.5C832.0801,-347.5 846.6925,-392.1965 915.4298,-396.2122"/>
<polygon fill="#555555" stroke="#555555" points="915.4041,-399.7128 925.5,-396.5 915.6041,-392.7157 915.4041,-399.7128"/>
</g>
<!-- VehicleType -->
<g id="VehicleType" class="node">
<title>VehicleType</title>
<polygon fill="#efebdd" stroke="transparent" points="931.5,-290.5 931.5,-313.5 1017.5,-313.5 1017.5,-290.5 931.5,-290.5"/>
<text text-anchor="start" x="933.1864" y="-297.1" font-family="Times,serif" font-size="16.00" fill="#000000">VehicleType</text>
<polygon fill="#ffffff" stroke="transparent" points="931.5,-272.5 931.5,-290.5 1017.5,-290.5 1017.5,-272.5 931.5,-272.5"/>
<text text-anchor="start" x="933.5" y="-278.7" font-family="Times,serif" text-decoration="underline" font-size="12.00" fill="#444444">type_name</text>
<polygon fill="none" stroke="#555555" points="930.5,-272 930.5,-315 1018.5,-315 1018.5,-272 930.5,-272"/>
</g>
<!-- Vehicle&#45;&gt;VehicleType -->
<g id="Vehicle_2" class="edge">
<title>Vehicle:vehicle_type_name&#45;&gt;VehicleType:type_name</title>
<path fill="none" stroke="#555555" d="M758,-329.5C834.4136,-329.5 850.1465,-285.7156 921.1084,-281.7819"/>
<polygon fill="#555555" stroke="#555555" points="921.5986,-285.27 931.5,-281.5 921.4087,-278.2725 921.5986,-285.27"/>
</g>
<!-- VehicleColor -->
<g id="VehicleColor" class="node">
<title>VehicleColor</title>
<polygon fill="#efebdd" stroke="transparent" points="378.5,-124.5 378.5,-147.5 468.5,-147.5 468.5,-124.5 378.5,-124.5"/>
<text text-anchor="start" x="380.4032" y="-131.1" font-family="Times,serif" font-size="16.00" fill="#000000">VehicleColor</text>
<polygon fill="#ffffff" stroke="transparent" points="378.5,-106.5 378.5,-124.5 468.5,-124.5 468.5,-106.5 378.5,-106.5"/>
<text text-anchor="start" x="380.5" y="-111.7" font-family="Times,serif" font-size="12.00" fill="#444444">vin</text>
<polygon fill="#ffffff" stroke="transparent" points="378.5,-88.5 378.5,-106.5 468.5,-106.5 468.5,-88.5 378.5,-88.5"/>
<text text-anchor="start" x="380.5" y="-93.7" font-family="Times,serif" font-size="12.00" fill="#444444">color_name</text>
<polygon fill="#ffffff" stroke="transparent" points="378.5,-70.5 378.5,-88.5 468.5,-88.5 468.5,-70.5 378.5,-70.5"/>
<text text-anchor="start" x="380.5" y="-76.7" font-family="Times,serif" text-decoration="underline" font-size="12.00" fill="#444444">vin, color_name</text>
<polygon fill="none" stroke="#555555" points="377.5,-70 377.5,-149 469.5,-149 469.5,-70 377.5,-70"/>
</g>
<!-- VehicleColor&#45;&gt;Color -->
<g id="VehicleColor_1" class="edge">
<title>VehicleColor:color_name&#45;&gt;Color:color_name</title>
<path fill="none" stroke="#555555" d="M468.5,-97.5C566.4359,-97.5 576.9626,-15.4128 668.9233,-9.8014"/>
<polygon fill="#555555" stroke="#555555" points="669.1091,-13.2975 679,-9.5 668.8998,-6.3006 669.1091,-13.2975"/>
</g>
<!-- VehicleColor&#45;&gt;Vehicle -->
<g id="VehicleColor_2" class="edge">
<title>VehicleColor:vin&#45;&gt;Vehicle:vin</title>
<path fill="none" stroke="#555555" d="M468.5,-115.5C652.7554,-115.5 479.9237,-477.6763 650.9278,-491.1165"/>
<polygon fill="#555555" stroke="#555555" points="650.874,-494.6169 661,-491.5 651.1405,-487.6219 650.874,-494.6169"/>
</g>
</g>
</svg>

